<?xml version="1.0" encoding="utf-8"?>
<!-- Generator: Adobe Illustrator 24.0.0, SVG Export Plug-In . SVG Version: 6.00 Build 0)  -->
<svg version="1.1" id="Layer_1" xmlns="http://www.w3.org/2000/svg" xmlns:xlink="http://www.w3.org/1999/xlink" x="0px" y="0px"
	 viewBox="0 0 50 50" style="enable-background:new 0 0 50 50;" xml:space="preserve">
<style type="text/css">
	.st0{fill:#DC3545;}
</style>
<g>
	<path d="M10.06,7.99C9.6,8.2,3.67,7.86,1.73,7.78L1.51,7.59V6.22l0.22-0.19c3.35,0.15,5.95,0.22,7.82,0.22
		c2.07,0,4.86-0.06,8.37-0.19C19.22,6.02,20.16,6,20.74,6c4.63,0,7.76,0.84,9.41,2.52s2.47,3.68,2.47,5.98
		c0,1.54-0.4,3.04-1.21,4.53c-0.8,1.48-1.99,2.75-3.57,3.8c-1.57,1.05-3.74,1.84-6.5,2.37c0.51,0.71,1.44,1.95,2.77,3.7l3.9,5.16
		c1.26,1.7,2.62,3.5,4.06,5.39c1.44,1.89,2.38,2.96,2.8,3.21c0.42,0.25,0.78,0.4,1.08,0.45c0.3,0.05,0.78,0.08,1.44,0.08l0.22,0.22
		v1.29l-0.25,0.25c-0.88-0.11-1.92-0.16-3.13-0.16c-1.3,0-2.72,0.05-4.25,0.16c-1.26-1.54-3.25-4.2-5.95-7.98
		c-3.15-4.39-6.36-8.46-9.66-12.21l0.27-0.85c0.95,0.05,1.69,0.08,2.22,0.08c3.16,0,5.64-0.76,7.43-2.28C26.1,20.2,27,18.1,27,15.41
		c0-2.41-0.8-4.24-2.41-5.47s-3.79-1.85-6.53-1.85c-1.92,0-5.57-0.13-5.57-0.13"/>
</g>
<g>
	<path class="st0" d="M28.2,23.99 M32.67,25.2c0.51,0.71,1.44,1.95,2.77,3.7l3.9,5.16c1.26,1.7,2.62,3.5,4.06,5.39
		s2.38,2.96,2.8,3.21c0.42,0.25,2.44,1.75,2.74,1.81c0.3,0.05-0.66,0,0,0l0,0v0.24l-0.25,0.25c-0.88-0.11-1.92-0.16-3.13-0.16
		c-1.3,0-2.72,0.05-4.25,0.16c-1.26-1.54-3.25-4.2-5.95-7.98c-3.15-4.39-6.36-8.46-9.66-12.21"/>
</g>
</svg>
