<svg id="Layer_1" data-name="Layer 1" xmlns="http://www.w3.org/2000/svg" viewBox="0 0 47.49 38.95"><title>Raphael-richardson-logo</title><path d="M10.06,8c-.46.21-6.39-.13-8.33-.21l-.22-.19V6.22L1.73,6c3.35.14,6,.22,7.82.22q3.1,0,8.37-.2c1.3,0,2.24,0,2.82,0q6.95,0,9.41,2.52a8.27,8.27,0,0,1,2.47,6A9.33,9.33,0,0,1,31.41,19a10.71,10.71,0,0,1-3.56,3.8,17.79,17.79,0,0,1-6.5,2.37c.51.71,1.43,1.95,2.77,3.7L28,34.06c1.26,1.7,2.62,3.5,4.06,5.39a17.84,17.84,0,0,0,2.8,3.21,3.27,3.27,0,0,0,1.08.45,8.31,8.31,0,0,0,1.44.09l.22.22v1.29l-.24.24a25.71,25.71,0,0,0-3.13-.16c-1.3,0-2.72.05-4.25.16Q28.1,42.66,24,37q-4.72-6.59-9.66-12.21l.27-.85c1,.06,1.7.08,2.23.08,3.16,0,5.64-.75,7.43-2.27A7.83,7.83,0,0,0,27,15.41a6.45,6.45,0,0,0-2.42-5.47,10.42,10.42,0,0,0-6.52-1.86c-1.92,0-5.57-.13-5.57-.13" transform="translate(-1.51 -6)"/><path d="M28.2,24m4.47,1.21c.51.71,1.44,1.95,2.77,3.7l3.9,5.16q1.89,2.55,4.06,5.39a17.42,17.42,0,0,0,2.8,3.21c.42.25,2.44,1.75,2.74,1.81s-.66,0,0,0h0v.24l-.25.24a25.65,25.65,0,0,0-3.12-.16c-1.3,0-2.72.05-4.26.16q-1.89-2.3-6-8-4.71-6.59-9.65-12.21" transform="translate(-1.51 -6)"/></svg>